<?xml version="1.0" encoding="UTF-8"?><svg xmlns="http://www.w3.org/2000/svg" xmlns:xlink="http://www.w3.org/1999/xlink" fill-opacity="1" color-rendering="auto" color-interpolation="auto" text-rendering="auto" stroke="black" stroke-linecap="square" width="950" stroke-miterlimit="10" shape-rendering="auto" stroke-opacity="1" fill="black" stroke-dasharray="none" font-weight="normal" stroke-width="1" height="658" font-family="'Dialog'" font-style="normal" stroke-linejoin="miter" font-size="12px" stroke-dashoffset="0" image-rendering="auto">
  <!--Generated by ySVG 2.5-->
  <defs id="genericDefs"/>
  <g>
    <defs id="defs1">
      <linearGradient x1="850" gradientUnits="userSpaceOnUse" x2="950" y1="333.72" y2="417" id="linearGradient1" spreadMethod="reflect">
        <stop stop-opacity="1" stop-color="rgb(231,231,231)" offset="0%"/>
        <stop stop-opacity="1" stop-color="rgb(231,231,231)" offset="100%"/>
      </linearGradient>
      <linearGradient x1="30" gradientUnits="userSpaceOnUse" x2="130" y1="333.72" y2="417" id="linearGradient2" spreadMethod="reflect">
        <stop stop-opacity="1" stop-color="rgb(231,231,231)" offset="0%"/>
        <stop stop-opacity="1" stop-color="rgb(231,231,231)" offset="100%"/>
      </linearGradient>
      <linearGradient x1="847" gradientUnits="userSpaceOnUse" x2="899" y1="577.6262" y2="606.4263" id="linearGradient3" spreadMethod="reflect">
        <stop stop-opacity="1" stop-color="rgb(231,231,231)" offset="0%"/>
        <stop stop-opacity="1" stop-color="rgb(231,231,231)" offset="100%"/>
      </linearGradient>
      <clipPath clipPathUnits="userSpaceOnUse" id="clipPath1">
        <path d="M0 0 L950 0 L950 658 L0 658 L0 0 Z"/>
      </clipPath>
      <clipPath clipPathUnits="userSpaceOnUse" id="clipPath2">
        <path d="M15 318 L965 318 L965 976 L15 976 L15 318 Z"/>
      </clipPath>
    </defs>
    <g fill="white" text-rendering="geometricPrecision" shape-rendering="geometricPrecision" transform="translate(-15,-318)" stroke="white">
      <rect x="15" width="950" height="658" y="318" clip-path="url(#clipPath2)" stroke="none"/>
    </g>
    <g fill="rgb(204,255,204)" text-rendering="geometricPrecision" shape-rendering="geometricPrecision" transform="matrix(1,0,0,1,-15,-318)" stroke="rgb(204,255,204)">
      <rect x="375" width="100" height="40" y="335.72" clip-path="url(#clipPath2)" stroke="none"/>
    </g>
    <g text-rendering="geometricPrecision" stroke-miterlimit="1.45" shape-rendering="geometricPrecision" transform="matrix(1,0,0,1,-15,-318)" stroke-linecap="butt">
      <rect fill="none" x="375" width="100" height="40" y="335.72" clip-path="url(#clipPath2)"/>
      <text x="404.3223" xml:space="preserve" y="353.0833" clip-path="url(#clipPath2)" font-family="sans-serif" stroke="none">Dataset</text>
      <text x="399.9834" xml:space="preserve" y="367.7845" clip-path="url(#clipPath2)" font-family="sans-serif" stroke="none">metadata</text>
    </g>
    <g fill="rgb(204,153,255)" text-rendering="geometricPrecision" shape-rendering="geometricPrecision" transform="matrix(1,0,0,1,-15,-318)" stroke="rgb(204,153,255)">
      <rect x="505" width="100" height="40" y="335.72" clip-path="url(#clipPath2)" stroke="none"/>
    </g>
    <g text-rendering="geometricPrecision" stroke-miterlimit="1.45" shape-rendering="geometricPrecision" transform="matrix(1,0,0,1,-15,-318)" stroke-linecap="butt">
      <rect fill="none" x="505" width="100" height="40" y="335.72" clip-path="url(#clipPath2)"/>
      <text x="525.3105" xml:space="preserve" y="353.0833" clip-path="url(#clipPath2)" font-family="sans-serif" stroke="none">Knowledge</text>
      <text x="539.6543" xml:space="preserve" y="367.7845" clip-path="url(#clipPath2)" font-family="sans-serif" stroke="none">graph</text>
    </g>
    <g fill="rgb(153,204,255)" text-rendering="geometricPrecision" shape-rendering="geometricPrecision" transform="matrix(1,0,0,1,-15,-318)" stroke="rgb(153,204,255)">
      <rect x="160" y="350.36" clip-path="url(#clipPath2)" width="200" rx="4" ry="4" height="50" stroke="none"/>
    </g>
    <g text-rendering="geometricPrecision" stroke-miterlimit="1.45" shape-rendering="geometricPrecision" transform="matrix(1,0,0,1,-15,-318)" stroke-linecap="butt">
      <rect x="160" y="350.36" clip-path="url(#clipPath2)" fill="none" width="200" rx="4" ry="4" height="50"/>
      <text x="193.2969" xml:space="preserve" y="380.0739" clip-path="url(#clipPath2)" font-family="sans-serif" stroke="none">Extract dataset metadata</text>
    </g>
    <g fill="rgb(153,204,255)" text-rendering="geometricPrecision" shape-rendering="geometricPrecision" transform="matrix(1,0,0,1,-15,-318)" stroke="rgb(153,204,255)">
      <rect x="620" y="350.36" clip-path="url(#clipPath2)" width="200" rx="4" ry="4" height="50" stroke="none"/>
    </g>
    <g text-rendering="geometricPrecision" stroke-miterlimit="1.45" shape-rendering="geometricPrecision" transform="matrix(1,0,0,1,-15,-318)" stroke-linecap="butt">
      <rect x="620" y="350.36" clip-path="url(#clipPath2)" fill="none" width="200" rx="4" ry="4" height="50"/>
      <text x="653.9619" xml:space="preserve" y="380.0739" clip-path="url(#clipPath2)" font-family="sans-serif" stroke="none">Extract knowledge graph</text>
    </g>
    <g fill="rgb(153,204,255)" text-rendering="geometricPrecision" shape-rendering="geometricPrecision" transform="matrix(1,0,0,1,-15,-318)" stroke="rgb(153,204,255)">
      <rect x="390" y="395.72" clip-path="url(#clipPath2)" width="200" rx="4" ry="4" height="50" stroke="none"/>
    </g>
    <g text-rendering="geometricPrecision" stroke-miterlimit="1.45" shape-rendering="geometricPrecision" transform="matrix(1,0,0,1,-15,-318)" stroke-linecap="butt">
      <rect x="390" y="395.72" clip-path="url(#clipPath2)" fill="none" width="200" rx="4" ry="4" height="50"/>
      <text x="414.2998" xml:space="preserve" y="425.4339" clip-path="url(#clipPath2)" font-family="sans-serif" stroke="none">Transform datatype property</text>
    </g>
    <g fill="rgb(153,204,255)" text-rendering="geometricPrecision" shape-rendering="geometricPrecision" transform="matrix(1,0,0,1,-15,-318)" stroke="rgb(153,204,255)">
      <rect x="390" y="523.22" clip-path="url(#clipPath2)" width="200" rx="4" ry="4" height="50" stroke="none"/>
    </g>
    <g text-rendering="geometricPrecision" stroke-miterlimit="1.45" shape-rendering="geometricPrecision" transform="matrix(1,0,0,1,-15,-318)" stroke-linecap="butt">
      <rect x="390" y="523.22" clip-path="url(#clipPath2)" fill="none" width="200" rx="4" ry="4" height="50"/>
      <text x="402.9414" xml:space="preserve" y="552.9338" clip-path="url(#clipPath2)" font-family="sans-serif" stroke="none">Map dataset to knowledge graph</text>
    </g>
    <g fill="rgb(204,255,204)" text-rendering="geometricPrecision" shape-rendering="geometricPrecision" transform="matrix(1,0,0,1,-15,-318)" stroke="rgb(204,255,204)">
      <rect x="390" width="100" height="40" y="465.72" clip-path="url(#clipPath2)" stroke="none"/>
    </g>
    <g text-rendering="geometricPrecision" stroke-miterlimit="1.45" shape-rendering="geometricPrecision" transform="matrix(1,0,0,1,-15,-318)" stroke-linecap="butt">
      <rect fill="none" x="390" width="100" height="40" y="465.72" clip-path="url(#clipPath2)"/>
      <text x="419.3223" xml:space="preserve" y="483.0833" clip-path="url(#clipPath2)" font-family="sans-serif" stroke="none">Dataset</text>
      <text x="414.9834" xml:space="preserve" y="497.7845" clip-path="url(#clipPath2)" font-family="sans-serif" stroke="none">metadata</text>
    </g>
    <g fill="rgb(204,153,255)" text-rendering="geometricPrecision" shape-rendering="geometricPrecision" transform="matrix(1,0,0,1,-15,-318)" stroke="rgb(204,153,255)">
      <rect x="290" width="100" height="40" y="465.72" clip-path="url(#clipPath2)" stroke="none"/>
    </g>
    <g text-rendering="geometricPrecision" stroke-miterlimit="1.45" shape-rendering="geometricPrecision" transform="matrix(1,0,0,1,-15,-318)" stroke-linecap="butt">
      <rect fill="none" x="290" width="100" height="40" y="465.72" clip-path="url(#clipPath2)"/>
      <text x="310.3105" xml:space="preserve" y="483.0833" clip-path="url(#clipPath2)" font-family="sans-serif" stroke="none">Knowledge</text>
      <text x="324.6543" xml:space="preserve" y="497.7845" clip-path="url(#clipPath2)" font-family="sans-serif" stroke="none">graph</text>
    </g>
    <g fill="rgb(153,204,255)" text-rendering="geometricPrecision" shape-rendering="geometricPrecision" transform="matrix(1,0,0,1,-15,-318)" stroke="rgb(153,204,255)">
      <rect x="390" y="650.72" clip-path="url(#clipPath2)" width="200" rx="4" ry="4" height="50" stroke="none"/>
    </g>
    <g text-rendering="geometricPrecision" stroke-miterlimit="1.45" shape-rendering="geometricPrecision" transform="matrix(1,0,0,1,-15,-318)" stroke-linecap="butt">
      <rect x="390" y="650.72" clip-path="url(#clipPath2)" fill="none" width="200" rx="4" ry="4" height="50"/>
      <text x="447.9736" xml:space="preserve" y="680.4338" clip-path="url(#clipPath2)" font-family="sans-serif" stroke="none">Refine mapping</text>
    </g>
    <g fill="rgb(204,255,204)" text-rendering="geometricPrecision" shape-rendering="geometricPrecision" transform="matrix(1,0,0,1,-15,-318)" stroke="rgb(204,255,204)">
      <rect x="390" width="100" height="40" y="590.72" clip-path="url(#clipPath2)" stroke="none"/>
    </g>
    <g text-rendering="geometricPrecision" stroke-miterlimit="1.45" shape-rendering="geometricPrecision" transform="matrix(1,0,0,1,-15,-318)" stroke-linecap="butt">
      <rect fill="none" x="390" width="100" height="40" y="590.72" clip-path="url(#clipPath2)"/>
      <text x="419.3223" xml:space="preserve" y="608.0833" clip-path="url(#clipPath2)" font-family="sans-serif" stroke="none">Dataset</text>
      <text x="414.9834" xml:space="preserve" y="622.7844" clip-path="url(#clipPath2)" font-family="sans-serif" stroke="none">metadata</text>
    </g>
    <g fill="rgb(204,153,255)" text-rendering="geometricPrecision" shape-rendering="geometricPrecision" transform="matrix(1,0,0,1,-15,-318)" stroke="rgb(204,153,255)">
      <rect x="290" width="100" height="40" y="590.72" clip-path="url(#clipPath2)" stroke="none"/>
    </g>
    <g text-rendering="geometricPrecision" stroke-miterlimit="1.45" shape-rendering="geometricPrecision" transform="matrix(1,0,0,1,-15,-318)" stroke-linecap="butt">
      <rect fill="none" x="290" width="100" height="40" y="590.72" clip-path="url(#clipPath2)"/>
      <text x="310.3105" xml:space="preserve" y="608.0833" clip-path="url(#clipPath2)" font-family="sans-serif" stroke="none">Knowledge</text>
      <text x="324.6543" xml:space="preserve" y="622.7844" clip-path="url(#clipPath2)" font-family="sans-serif" stroke="none">graph</text>
    </g>
    <g fill="rgb(255,255,153)" text-rendering="geometricPrecision" shape-rendering="geometricPrecision" transform="matrix(1,0,0,1,-15,-318)" stroke="rgb(255,255,153)">
      <rect x="190" width="100" height="40" y="590.72" clip-path="url(#clipPath2)" stroke="none"/>
    </g>
    <g text-rendering="geometricPrecision" stroke-miterlimit="1.45" shape-rendering="geometricPrecision" transform="matrix(1,0,0,1,-15,-318)" stroke-linecap="butt">
      <rect fill="none" x="190" width="100" height="40" y="590.72" clip-path="url(#clipPath2)"/>
      <text x="216.9844" xml:space="preserve" y="615.4338" clip-path="url(#clipPath2)" font-family="sans-serif" stroke="none">Mapping</text>
    </g>
    <g fill="rgb(204,255,204)" text-rendering="geometricPrecision" shape-rendering="geometricPrecision" transform="matrix(1,0,0,1,-15,-318)" stroke="rgb(204,255,204)">
      <rect x="190" width="100" height="40" y="415.36" clip-path="url(#clipPath2)" stroke="none"/>
    </g>
    <g text-rendering="geometricPrecision" stroke-miterlimit="1.45" shape-rendering="geometricPrecision" transform="matrix(1,0,0,1,-15,-318)" stroke-linecap="butt">
      <rect fill="none" x="190" width="100" height="40" y="415.36" clip-path="url(#clipPath2)"/>
      <text x="219.3223" xml:space="preserve" y="432.7233" clip-path="url(#clipPath2)" font-family="sans-serif" stroke="none">Dataset</text>
      <text x="214.9834" xml:space="preserve" y="447.4244" clip-path="url(#clipPath2)" font-family="sans-serif" stroke="none">metadata</text>
    </g>
    <g fill="rgb(255,204,0)" text-rendering="geometricPrecision" shape-rendering="geometricPrecision" transform="matrix(1,0,0,1,-15,-318)" stroke="rgb(255,204,0)">
      <rect x="645" width="100" height="40" y="755.72" clip-path="url(#clipPath2)" stroke="none"/>
    </g>
    <g text-rendering="geometricPrecision" stroke-miterlimit="1.45" shape-rendering="geometricPrecision" transform="matrix(1,0,0,1,-15,-318)" stroke-linecap="butt">
      <rect fill="none" x="645" width="100" height="40" y="755.72" clip-path="url(#clipPath2)"/>
      <text x="680.665" xml:space="preserve" y="773.0833" clip-path="url(#clipPath2)" font-family="sans-serif" stroke="none">Word</text>
      <text x="662.3105" xml:space="preserve" y="787.7844" clip-path="url(#clipPath2)" font-family="sans-serif" stroke="none">embeddings</text>
    </g>
    <g fill="rgb(204,255,204)" text-rendering="geometricPrecision" shape-rendering="geometricPrecision" transform="matrix(1,0,0,1,-15,-318)" stroke="rgb(204,255,204)">
      <rect x="390" width="100" height="40" y="720.72" clip-path="url(#clipPath2)" stroke="none"/>
    </g>
    <g text-rendering="geometricPrecision" stroke-miterlimit="1.45" shape-rendering="geometricPrecision" transform="matrix(1,0,0,1,-15,-318)" stroke-linecap="butt">
      <rect fill="none" x="390" width="100" height="40" y="720.72" clip-path="url(#clipPath2)"/>
      <text x="419.3223" xml:space="preserve" y="738.0833" clip-path="url(#clipPath2)" font-family="sans-serif" stroke="none">Dataset</text>
      <text x="414.9834" xml:space="preserve" y="752.7844" clip-path="url(#clipPath2)" font-family="sans-serif" stroke="none">metadata</text>
    </g>
    <g fill="rgb(204,153,255)" text-rendering="geometricPrecision" shape-rendering="geometricPrecision" transform="matrix(1,0,0,1,-15,-318)" stroke="rgb(204,153,255)">
      <rect x="290" width="100" height="40" y="720.72" clip-path="url(#clipPath2)" stroke="none"/>
    </g>
    <g text-rendering="geometricPrecision" stroke-miterlimit="1.45" shape-rendering="geometricPrecision" transform="matrix(1,0,0,1,-15,-318)" stroke-linecap="butt">
      <rect fill="none" x="290" width="100" height="40" y="720.72" clip-path="url(#clipPath2)"/>
      <text x="310.3105" xml:space="preserve" y="738.0833" clip-path="url(#clipPath2)" font-family="sans-serif" stroke="none">Knowledge</text>
      <text x="324.6543" xml:space="preserve" y="752.7844" clip-path="url(#clipPath2)" font-family="sans-serif" stroke="none">graph</text>
    </g>
    <g fill="rgb(255,255,153)" text-rendering="geometricPrecision" shape-rendering="geometricPrecision" transform="matrix(1,0,0,1,-15,-318)" stroke="rgb(255,255,153)">
      <rect x="190" width="100" height="40" y="720.72" clip-path="url(#clipPath2)" stroke="none"/>
    </g>
    <g text-rendering="geometricPrecision" stroke-miterlimit="1.45" shape-rendering="geometricPrecision" transform="matrix(1,0,0,1,-15,-318)" stroke-linecap="butt">
      <rect fill="none" x="190" width="100" height="40" y="720.72" clip-path="url(#clipPath2)"/>
      <text x="216.9844" xml:space="preserve" y="745.4338" clip-path="url(#clipPath2)" font-family="sans-serif" stroke="none">Mapping</text>
    </g>
    <g fill="rgb(153,204,255)" text-rendering="geometricPrecision" shape-rendering="geometricPrecision" transform="matrix(1,0,0,1,-15,-318)" stroke="rgb(153,204,255)">
      <rect x="390" y="910.72" clip-path="url(#clipPath2)" width="200" rx="4" ry="4" height="50" stroke="none"/>
    </g>
    <g text-rendering="geometricPrecision" stroke-miterlimit="1.45" shape-rendering="geometricPrecision" transform="matrix(1,0,0,1,-15,-318)" stroke-linecap="butt">
      <rect x="390" y="910.72" clip-path="url(#clipPath2)" fill="none" width="200" rx="4" ry="4" height="50"/>
      <text x="438.6396" xml:space="preserve" y="940.4338" clip-path="url(#clipPath2)" font-family="sans-serif" stroke="none">Compute distances</text>
    </g>
    <g fill="rgb(61,244,61)" text-rendering="geometricPrecision" shape-rendering="geometricPrecision" transform="matrix(1,0,0,1,-15,-318)" stroke="rgb(61,244,61)">
      <rect x="390" width="100" height="40" y="850.72" clip-path="url(#clipPath2)" stroke="none"/>
    </g>
    <g text-rendering="geometricPrecision" stroke-miterlimit="1.45" shape-rendering="geometricPrecision" transform="matrix(1,0,0,1,-15,-318)" stroke-linecap="butt">
      <rect fill="none" x="390" width="100" height="40" y="850.72" clip-path="url(#clipPath2)"/>
      <text x="419.3223" xml:space="preserve" y="868.0833" clip-path="url(#clipPath2)" font-family="sans-serif" stroke="none">Dataset</text>
      <text x="413.6562" xml:space="preserve" y="882.7844" clip-path="url(#clipPath2)" font-family="sans-serif" stroke="none">descriptor</text>
    </g>
    <g fill="rgb(153,204,255)" text-rendering="geometricPrecision" shape-rendering="geometricPrecision" transform="matrix(1,0,0,1,-15,-318)" stroke="rgb(153,204,255)">
      <rect x="30" y="910.72" clip-path="url(#clipPath2)" width="200" rx="4" ry="4" height="50" stroke="none"/>
    </g>
    <g text-rendering="geometricPrecision" stroke-miterlimit="1.45" shape-rendering="geometricPrecision" transform="matrix(1,0,0,1,-15,-318)" stroke-linecap="butt">
      <rect x="30" y="910.72" clip-path="url(#clipPath2)" fill="none" width="200" rx="4" ry="4" height="50"/>
      <text x="45.2939" xml:space="preserve" y="940.4338" clip-path="url(#clipPath2)" font-family="sans-serif" stroke="none">Similarity search in data catalog</text>
    </g>
    <g fill="rgb(153,204,255)" text-rendering="geometricPrecision" shape-rendering="geometricPrecision" transform="matrix(1,0,0,1,-15,-318)" stroke="rgb(153,204,255)">
      <rect x="750" y="910.72" clip-path="url(#clipPath2)" width="200" rx="4" ry="4" height="50" stroke="none"/>
    </g>
    <g text-rendering="geometricPrecision" stroke-miterlimit="1.45" shape-rendering="geometricPrecision" transform="matrix(1,0,0,1,-15,-318)" stroke-linecap="butt">
      <rect x="750" y="910.72" clip-path="url(#clipPath2)" fill="none" width="200" rx="4" ry="4" height="50"/>
      <text x="776.9688" xml:space="preserve" y="940.4338" clip-path="url(#clipPath2)" font-family="sans-serif" stroke="none">Similarity search evaluation</text>
    </g>
    <g fill="rgb(255,204,204)" text-rendering="geometricPrecision" shape-rendering="geometricPrecision" transform="matrix(1,0,0,1,-15,-318)" stroke="rgb(255,204,204)">
      <rect x="260" width="100" height="40" y="895.36" clip-path="url(#clipPath2)" stroke="none"/>
    </g>
    <g text-rendering="geometricPrecision" stroke-miterlimit="1.45" shape-rendering="geometricPrecision" transform="matrix(1,0,0,1,-15,-318)" stroke-linecap="butt">
      <rect fill="none" x="260" width="100" height="40" y="895.36" clip-path="url(#clipPath2)"/>
      <text x="289.3223" xml:space="preserve" y="912.7233" clip-path="url(#clipPath2)" font-family="sans-serif" stroke="none">Dataset</text>
      <text x="268.668" xml:space="preserve" y="927.4244" clip-path="url(#clipPath2)" font-family="sans-serif" stroke="none">similarity matrix</text>
    </g>
    <g fill="rgb(153,204,255)" text-rendering="geometricPrecision" shape-rendering="geometricPrecision" transform="matrix(1,0,0,1,-15,-318)" stroke="rgb(153,204,255)">
      <rect x="390" y="780.72" clip-path="url(#clipPath2)" width="200" rx="4" ry="4" height="50" stroke="none"/>
    </g>
    <g text-rendering="geometricPrecision" stroke-miterlimit="1.45" shape-rendering="geometricPrecision" transform="matrix(1,0,0,1,-15,-318)" stroke-linecap="butt">
      <rect x="390" y="780.72" clip-path="url(#clipPath2)" fill="none" width="200" rx="4" ry="4" height="50"/>
      <text x="444.9766" xml:space="preserve" y="810.4338" clip-path="url(#clipPath2)" font-family="sans-serif" stroke="none">Describe dataset</text>
    </g>
    <g fill="rgb(255,204,0)" text-rendering="geometricPrecision" shape-rendering="geometricPrecision" transform="matrix(1,0,0,1,-15,-318)" stroke="rgb(255,204,0)">
      <rect x="645" width="100" height="40" y="815.72" clip-path="url(#clipPath2)" stroke="none"/>
    </g>
    <g text-rendering="geometricPrecision" stroke-miterlimit="1.45" shape-rendering="geometricPrecision" transform="matrix(1,0,0,1,-15,-318)" stroke-linecap="butt">
      <rect fill="none" x="645" width="100" height="40" y="815.72" clip-path="url(#clipPath2)"/>
      <text x="680.6562" xml:space="preserve" y="833.0833" clip-path="url(#clipPath2)" font-family="sans-serif" stroke="none">Node</text>
      <text x="662.3105" xml:space="preserve" y="847.7844" clip-path="url(#clipPath2)" font-family="sans-serif" stroke="none">embeddings</text>
    </g>
    <g fill="url(#linearGradient1)" text-rendering="geometricPrecision" shape-rendering="geometricPrecision" transform="matrix(1,0,0,1,-15,-318)" stroke="url(#linearGradient1)">
      <path d="M850 350.376 C853 333.72 947 333.72 950 350.376 L950 400.344 C947 417 853 417 850 400.344 Z" stroke="none" clip-path="url(#clipPath2)"/>
    </g>
    <g text-rendering="geometricPrecision" stroke-miterlimit="1.45" shape-rendering="geometricPrecision" transform="matrix(1,0,0,1,-15,-318)" stroke-linecap="butt">
      <path fill="none" d="M850 350.376 C853 333.72 947 333.72 950 350.376 L950 400.344 C947 417 853 417 850 400.344 Z" clip-path="url(#clipPath2)"/>
      <path fill="none" d="M950 350.376 C947 367.032 853 367.032 850 350.376" clip-path="url(#clipPath2)"/>
      <text x="870.3105" xml:space="preserve" y="380.3408" clip-path="url(#clipPath2)" font-family="sans-serif" stroke="none">Knowledge</text>
      <text x="864.9785" xml:space="preserve" y="395.042" clip-path="url(#clipPath2)" font-family="sans-serif" stroke="none">graph source</text>
    </g>
    <g fill="url(#linearGradient2)" text-rendering="geometricPrecision" shape-rendering="geometricPrecision" transform="matrix(1,0,0,1,-15,-318)" stroke="url(#linearGradient2)">
      <path d="M30 350.376 C33 333.72 127 333.72 130 350.376 L130 400.344 C127 417 33 417 30 400.344 Z" stroke="none" clip-path="url(#clipPath2)"/>
    </g>
    <g text-rendering="geometricPrecision" stroke-miterlimit="1.45" shape-rendering="geometricPrecision" transform="matrix(1,0,0,1,-15,-318)" stroke-linecap="butt">
      <path fill="none" d="M30 350.376 C33 333.72 127 333.72 130 350.376 L130 400.344 C127 417 33 417 30 400.344 Z" clip-path="url(#clipPath2)"/>
      <path fill="none" d="M130 350.376 C127 367.032 33 367.032 30 350.376" clip-path="url(#clipPath2)"/>
      <text x="67.3262" xml:space="preserve" y="380.3408" clip-path="url(#clipPath2)" font-family="sans-serif" stroke="none">Data</text>
      <text x="60.6523" xml:space="preserve" y="395.042" clip-path="url(#clipPath2)" font-family="sans-serif" stroke="none">catalog</text>
    </g>
    <g fill="rgb(255,204,204)" text-rendering="geometricPrecision" shape-rendering="geometricPrecision" transform="matrix(1,0,0,1,-15,-318)" stroke="rgb(255,204,204)">
      <rect x="620" width="100" height="40" y="895.36" clip-path="url(#clipPath2)" stroke="none"/>
    </g>
    <g text-rendering="geometricPrecision" stroke-miterlimit="1.45" shape-rendering="geometricPrecision" transform="matrix(1,0,0,1,-15,-318)" stroke-linecap="butt">
      <rect fill="none" x="620" width="100" height="40" y="895.36" clip-path="url(#clipPath2)"/>
      <text x="649.3223" xml:space="preserve" y="912.7233" clip-path="url(#clipPath2)" font-family="sans-serif" stroke="none">Dataset</text>
      <text x="628.668" xml:space="preserve" y="927.4244" clip-path="url(#clipPath2)" font-family="sans-serif" stroke="none">similarity matrix</text>
    </g>
    <g fill="url(#linearGradient3)" text-rendering="geometricPrecision" shape-rendering="geometricPrecision" transform="matrix(1,0,0,1,-15,-318)" stroke="url(#linearGradient3)">
      <path d="M847 583.3862 C848.56 577.6262 897.44 577.6262 899 583.3862 L899 600.6663 C897.44 606.4263 848.56 606.4263 847 600.6663 Z" stroke="none" clip-path="url(#clipPath2)"/>
    </g>
    <g text-rendering="geometricPrecision" stroke-miterlimit="1.45" shape-rendering="geometricPrecision" transform="matrix(1,0,0,1,-15,-318)" stroke-linecap="butt">
      <path fill="none" d="M847 583.3862 C848.56 577.6262 897.44 577.6262 899 583.3862 L899 600.6663 C897.44 606.4263 848.56 606.4263 847 600.6663 Z" clip-path="url(#clipPath2)"/>
      <path fill="none" d="M899 583.3862 C897.44 589.1462 848.56 589.1462 847 583.3862" clip-path="url(#clipPath2)"/>
      <text x="851.4336" font-size="8px" y="596.6783" clip-path="url(#clipPath2)" font-family="sans-serif" stroke="none" xml:space="preserve">Data source</text>
    </g>
    <g fill="rgb(153,204,255)" text-rendering="geometricPrecision" shape-rendering="geometricPrecision" transform="matrix(1,0,0,1,-15,-318)" stroke="rgb(153,204,255)">
      <rect x="827.6" y="619.6262" clip-path="url(#clipPath2)" width="90.8" rx="4" ry="4" height="27.02" stroke="none"/>
    </g>
    <g text-rendering="geometricPrecision" stroke-miterlimit="1.45" shape-rendering="geometricPrecision" transform="matrix(1,0,0,1,-15,-318)" stroke-linecap="butt">
      <rect x="827.6" y="619.6262" clip-path="url(#clipPath2)" fill="none" width="90.8" rx="4" ry="4" height="27.02"/>
      <text x="837.8652" font-size="8px" y="636.2788" clip-path="url(#clipPath2)" font-family="sans-serif" stroke="none" xml:space="preserve">Pipeline component</text>
      <rect fill="none" x="804.6" width="137.6" height="171.7738" y="539.1462" clip-path="url(#clipPath2)"/>
      <text x="810.6" xml:space="preserve" y="557.2107" clip-path="url(#clipPath2)" font-family="sans-serif" stroke="none">Legend</text>
    </g>
    <g fill="rgb(255,255,153)" text-rendering="geometricPrecision" shape-rendering="geometricPrecision" transform="matrix(1,0,0,1,-15,-318)" stroke="rgb(255,255,153)">
      <rect x="862.2" width="10.8" height="23.3875" y="664.0262" clip-path="url(#clipPath2)" stroke="none"/>
      <rect x="894.6" y="664.0262" clip-path="url(#clipPath2)" fill="rgb(255,204,204)" width="10.8" height="23.3875" stroke="none"/>
      <rect x="873" y="664.0262" clip-path="url(#clipPath2)" fill="rgb(61,244,61)" width="10.8" height="23.3875" stroke="none"/>
      <rect x="883.8" y="664.0262" clip-path="url(#clipPath2)" fill="rgb(255,204,0)" width="10.8" height="23.3875" stroke="none"/>
      <rect x="851.4" y="664.0262" clip-path="url(#clipPath2)" fill="rgb(204,153,255)" width="10.8" height="23.3875" stroke="none"/>
      <rect x="840.6" y="664.0262" clip-path="url(#clipPath2)" fill="rgb(204,255,204)" width="10.8" height="23.3875" stroke="none"/>
    </g>
    <g text-rendering="geometricPrecision" stroke-miterlimit="1.45" shape-rendering="geometricPrecision" transform="matrix(1,0,0,1,-15,-318)" stroke-linecap="butt">
      <rect fill="none" x="840.6" width="64.8" height="23.3875" y="664.0262" clip-path="url(#clipPath2)"/>
      <text x="844.0879" font-size="8px" y="678.8625" clip-path="url(#clipPath2)" font-family="sans-serif" stroke="none" xml:space="preserve">Exchanged data</text>
    </g>
    <g text-rendering="geometricPrecision" stroke-miterlimit="1.45" shape-rendering="geometricPrecision" transform="matrix(1,0,0,1,-15,-318)" stroke-linecap="butt">
      <path fill="none" d="M360.0198 375.72 L480 375.72 L487.5 376.8444 L489.375 378.2499 L490 380.2176 L490 384.7151" clip-path="url(#clipPath2)"/>
      <path d="M490 395.7151 L496 383.7151 L484 383.7151 Z" clip-path="url(#clipPath2)" stroke="none"/>
    </g>
    <g text-rendering="geometricPrecision" stroke-miterlimit="1.45" shape-rendering="geometricPrecision" transform="matrix(1,0,0,1,-15,-318)" stroke-linecap="butt">
      <path fill="none" d="M620.0208 375.5165 L500 375.7043 L492.5 376.8405 L490.625 378.2489 L490 380.2176 L490 384.7151" clip-path="url(#clipPath2)"/>
      <path d="M490 395.7151 L496 383.7151 L484 383.7151 Z" clip-path="url(#clipPath2)" stroke="none"/>
    </g>
    <g text-rendering="geometricPrecision" stroke-miterlimit="1.45" shape-rendering="geometricPrecision" transform="matrix(1,0,0,1,-15,-318)" stroke-linecap="butt">
      <path fill="none" d="M490 445.7157 L490 512.2195" clip-path="url(#clipPath2)"/>
      <path d="M490 523.2195 L496 511.2195 L484 511.2195 Z" clip-path="url(#clipPath2)" stroke="none"/>
    </g>
    <g text-rendering="geometricPrecision" stroke-miterlimit="1.45" shape-rendering="geometricPrecision" transform="matrix(1,0,0,1,-15,-318)" stroke-linecap="butt">
      <path fill="none" d="M490 573.2157 L490 639.7195" clip-path="url(#clipPath2)"/>
      <path d="M490 650.7195 L496 638.7195 L484 638.7195 Z" clip-path="url(#clipPath2)" stroke="none"/>
    </g>
    <g text-rendering="geometricPrecision" stroke-miterlimit="1.45" shape-rendering="geometricPrecision" transform="matrix(1,0,0,1,-15,-318)" stroke-linecap="butt">
      <path fill="none" d="M390.0244 935.72 L241.0167 935.72" clip-path="url(#clipPath2)"/>
      <path d="M230.0167 935.72 L242.0167 941.72 L242.0167 929.72 Z" clip-path="url(#clipPath2)" stroke="none"/>
    </g>
    <g text-rendering="geometricPrecision" stroke-miterlimit="1.45" shape-rendering="geometricPrecision" transform="matrix(1,0,0,1,-15,-318)" stroke-linecap="butt">
      <path fill="none" d="M589.9756 935.72 L738.9833 935.72" clip-path="url(#clipPath2)"/>
      <path d="M749.9833 935.72 L737.9833 929.72 L737.9833 941.72 Z" clip-path="url(#clipPath2)" stroke="none"/>
    </g>
    <g text-rendering="geometricPrecision" stroke-miterlimit="1.45" shape-rendering="geometricPrecision" transform="matrix(1,0,0,1,-15,-318)" stroke-linecap="butt">
      <path fill="none" d="M490 445.719 L490 450.5395 L489.375 452.6485 L487.5 454.1548 L480 455.36 L190 455.36 L185.625 455.985 L182.5 457.86 L180.625 460.985 L180 465.36 L180 795.72 L180.625 800.095 L182.5 803.22 L185.625 805.095 L190 805.72 L378.9841 805.72" clip-path="url(#clipPath2)"/>
      <path d="M389.9841 805.72 L377.9841 799.72 L377.9841 811.72 Z" clip-path="url(#clipPath2)" stroke="none"/>
    </g>
    <g text-rendering="geometricPrecision" stroke-miterlimit="1.45" shape-rendering="geometricPrecision" transform="matrix(1,0,0,1,-15,-318)" stroke-linecap="butt">
      <path fill="none" d="M645 781.6215 L593.9818 787.6431" clip-path="url(#clipPath2)"/>
      <path d="M590.0094 788.112 L598.6575 793.1329 L594.9749 787.5259 L597.2509 781.2156 Z" clip-path="url(#clipPath2)" stroke="none"/>
    </g>
    <g text-rendering="geometricPrecision" stroke-miterlimit="1.45" shape-rendering="geometricPrecision" transform="matrix(1,0,0,1,-15,-318)" stroke-linecap="butt">
      <path fill="none" d="M490 700.7341 L490 769.7294" clip-path="url(#clipPath2)"/>
      <path d="M490 780.7294 L496 768.7294 L484 768.7294 Z" clip-path="url(#clipPath2)" stroke="none"/>
    </g>
    <g text-rendering="geometricPrecision" stroke-miterlimit="1.45" shape-rendering="geometricPrecision" transform="matrix(1,0,0,1,-15,-318)" stroke-linecap="butt">
      <path fill="none" d="M490 830.7224 L490 910.7346" clip-path="url(#clipPath2)"/>
      <path d="M490 910.7346 L496 898.7346 L484 898.7346 Z" clip-path="url(#clipPath2)" stroke="none"/>
    </g>
    <g text-rendering="geometricPrecision" stroke-miterlimit="1.45" shape-rendering="geometricPrecision" transform="matrix(1,0,0,1,-15,-318)" stroke-linecap="butt">
      <path fill="none" d="M645 828.403 L593.9737 820.9357" clip-path="url(#clipPath2)"/>
      <path d="M590.0159 820.3564 L597.0627 827.4517 L594.9632 821.0805 L598.8004 815.5781 Z" clip-path="url(#clipPath2)" stroke="none"/>
    </g>
    <g text-rendering="geometricPrecision" stroke-miterlimit="1.45" shape-rendering="geometricPrecision" transform="matrix(1,0,0,1,-15,-318)" stroke-linecap="butt">
      <path fill="none" d="M850.0342 375.36 L819.9702 375.36" clip-path="url(#clipPath2)"/>
    </g>
    <g text-rendering="geometricPrecision" stroke-miterlimit="1.45" shape-rendering="geometricPrecision" transform="matrix(1,0,0,1,-15,-318)" stroke-linecap="butt">
      <path fill="none" d="M130.0322 373.8448 L160.0175 374.1944" clip-path="url(#clipPath2)"/>
    </g>
  </g>
</svg>
